<svg width="62" height="62" viewBox="0 0 62 62" fill="none" xmlns="http://www.w3.org/2000/svg">
<path d="M0 24.66C0 18.464 0 15.3661 0.754688 12.8426C2.49154 7.03492 7.03492 2.49154 12.8426 0.754688C15.3661 0 18.464 0 24.66 0H37.34C43.536 0 46.6339 0 49.1574 0.754688C54.9651 2.49154 59.5085 7.03492 61.2453 12.8426C62 15.3661 62 18.464 62 24.66V37.34C62 43.536 62 46.6339 61.2453 49.1574C59.5085 54.9651 54.9651 59.5085 49.1574 61.2453C46.6339 62 43.536 62 37.34 62H24.66C18.464 62 15.3661 62 12.8426 61.2453C7.03492 59.5085 2.49154 54.9651 0.754688 49.1574C0 46.6339 0 43.536 0 37.34V24.66Z" fill="#EDFFDD"/>
<path d="M31.845 32.54C32.4317 32.76 33.0917 33.0717 33.825 33.475C32.725 29.515 31.8817 26.1417 31.295 23.355C29.865 26.215 27.9767 29.6983 25.63 33.805C25.4467 34.2083 25.135 34.7767 24.695 35.51C26.1617 33.2367 27.83 32.1 29.7 32.1C30.4333 32.1 31.1483 32.2467 31.845 32.54ZM40.645 24.73C42.1483 29.8267 43.9267 34.575 45.98 38.975L46.585 40.185C47.0983 41.065 47.4833 41.8167 47.74 42.44C47.9967 43.0267 48.125 43.6317 48.125 44.255C48.125 45.2083 47.7217 46.1983 46.915 47.225C46.1083 48.215 45.2283 48.9483 44.275 49.425C43.6883 49.755 43.065 49.92 42.405 49.92C41.305 49.92 40.205 49.59 39.105 48.93C38.0417 48.2333 36.7583 47.2433 35.255 45.96C34.1917 45.08 33.385 44.4567 32.835 44.09C32.4683 43.8333 31.6983 43.43 30.525 42.88C28.4717 41.8533 26.8767 40.9367 25.74 40.13C24.64 39.3233 24.09 38.37 24.09 37.27C24.09 36.9767 24.2183 36.5367 24.475 35.95C23.7783 37.1967 22.8067 39.1033 21.56 41.67C20.02 44.7867 19.14 46.5283 18.92 46.895C18.48 47.7017 17.765 48.6 16.775 49.59C15.785 50.5433 14.8683 51.02 14.025 51.02C13.585 51.02 13.2 50.855 12.87 50.525C12.6133 50.2683 12.485 49.865 12.485 49.315C12.485 47.775 13.6583 45.0433 16.005 41.12C16.1517 40.8267 16.39 40.405 16.72 39.855L17.93 37.545C20.4233 32.8517 22.2383 29.3133 23.375 26.93C24.035 25.5367 24.9883 23.4467 26.235 20.66L28.215 16.205C29.0217 14.4817 29.8283 13.0517 30.635 11.915C31.4417 10.7417 32.45 9.84333 33.66 9.22C34.2833 8.89 34.87 8.725 35.42 8.725C36.1533 8.725 36.685 9.07333 37.015 9.77C37.345 10.43 37.6383 11.42 37.895 12.74C38.555 16.5167 39.4717 20.5133 40.645 24.73Z" fill="#121211"/>
</svg>
